# xmcd
#
# Track frame offsets:
#	183
#	18683
#	38283
#	56320
#	75108
#	93550
#	114585
#	131643
#	150023
#	171820
#	194083
#	215970
#	240733
#
# Disc length: 3487 seconds
#
# Revision: 1
# Processed by: cddbd v1.5.2PL0 Copyright (c) Steve Scherf et al.
# Submitted via: EZCDAudioConverter 7.1.5.1
#
DISCID=a10d9d0d
DTITLE=苏芮 - 精选十三首(第二辑)
DYEAR=1989
DGENRE=
TTITLE0=凭着爱
TTITLE1=休息工作再工作
TTITLE2=明朝醒了时
TTITLE3=若即若离
TTITLE4=我只是个人
TTITLE5=机场内
TTITLE6=后浪
TTITLE7=跟着感觉走
TTITLE8=谁可相依
TTITLE9=一切为明天
TTITLE10=奉献
TTITLE11=北西南东
TTITLE12=不变的心
EXTD=
EXTT0=
EXTT1=
EXTT2=
EXTT3=
EXTT4=
EXTT5=
EXTT6=
EXTT7=
EXTT8=
EXTT9=
EXTT10=
EXTT11=
EXTT12=
PLAYORDER=
